<svg width="46" height="42" viewBox="0 0 46 42" fill="none" xmlns="http://www.w3.org/2000/svg">
<path d="M30.6703 39.6475C29.9776 39.6475 29.4234 39.6475 28.7307 39.5056C27.3452 39.2217 26.9296 37.9443 27.3452 36.8088H2.96139C3.79265 33.9701 6.00937 31.8411 8.78026 30.9895C12.521 29.9959 15.0148 26.5895 15.0148 22.7572C15.0148 22.1895 14.7377 21.7637 14.322 21.4798C12.3824 20.4862 11.1355 18.0733 10.997 15.5185C10.997 14.5249 11.6897 13.5314 12.6595 13.2475L14.1835 12.6798C14.7377 12.5378 15.1533 11.9701 15.1533 11.4024V6.86042C17.6471 10.4088 21.2493 12.8217 25.267 13.8153C24.99 14.383 24.8514 14.9507 24.8514 15.6604C24.8514 18.2153 23.466 20.4862 21.3878 21.7637C20.9722 22.0475 20.6951 22.4733 20.6951 23.0411C20.6951 26.0217 22.3576 28.7185 24.7129 30.2798C24.8514 29.2862 25.4056 28.4346 26.0983 27.8669C24.7129 27.0153 23.6045 25.5959 23.466 23.8927C25.9598 22.0475 27.6223 19.0669 27.6223 15.8024C27.6223 14.9507 28.1765 14.383 29.0077 14.383C29.839 14.383 30.3932 13.8153 30.3932 12.9636V9.55719C30.3932 4.73138 26.9296 0.615251 22.3576 0.0475084C19.5867 -0.236363 16.8158 0.757186 14.8762 2.88622C13.4908 2.74428 12.2439 3.17009 10.997 4.16364C9.19589 5.44106 8.22608 7.57009 8.22608 9.983V15.3766V15.5185V15.6604V15.8024C8.36462 18.9249 9.88861 21.9056 12.2439 23.7508C11.9668 26.0217 10.3042 27.8669 8.08753 28.4346C3.9312 29.5701 0.883221 32.8346 0.0519542 37.0927C-0.0865903 37.8024 0.0519542 38.3701 0.467588 38.9379C1.02177 39.5056 1.57594 39.7895 2.26867 39.7895H30.9474C30.8088 39.7895 30.8088 39.7895 30.6703 39.6475Z" fill="url(#paint0_linear)"/>
<path d="M44.7391 27.9787C44.5949 27.272 43.7299 26.8479 43.0091 26.9893C42 27.272 41.2791 26.9893 41.135 26.7066C40.9908 26.4239 41.135 25.7171 41.8558 24.869C42.4325 24.3036 42.4325 23.4554 41.8558 22.89C40.4142 21.4765 38.6842 20.487 36.6659 19.9216C35.945 19.7803 35.0801 20.2043 34.9359 20.9111C34.6476 21.9006 34.0709 22.3246 33.6384 22.3246C33.2059 22.3246 32.7734 21.7592 32.3409 20.9111C32.0526 20.2043 31.3318 19.7803 30.6109 19.9216C28.5926 20.487 26.8627 21.4765 25.421 22.89C24.8444 23.4554 24.8444 24.3036 25.421 24.869C26.1418 25.5757 26.286 26.2825 26.1418 26.7066C25.9977 26.9893 25.2768 27.272 24.2677 26.9893C23.5469 26.8479 22.6819 27.272 22.5377 27.9787C22.2494 28.9682 22.1052 29.9577 22.1052 30.9472C22.1052 31.9366 22.2494 32.9261 22.5377 33.9156C22.6819 34.6223 23.5469 35.0464 24.2677 34.9051C25.2768 34.6223 25.9977 34.9051 26.1418 35.1878C26.286 35.4705 26.1418 36.1772 25.421 37.0253C24.8444 37.5908 24.8444 38.4389 25.421 39.0043C26.8627 40.4178 28.5926 41.4073 30.6109 41.9727C31.3318 42.1141 32.1968 41.69 32.3409 40.9832C32.6293 39.9938 33.2059 39.5697 33.6384 39.5697C34.0709 39.5697 34.5034 40.1351 34.9359 40.9832C35.0801 41.5487 35.6567 41.9727 36.3775 41.9727C36.5217 41.9727 36.6659 41.9727 36.81 41.9727C38.8283 41.4073 40.5583 40.4178 42 39.0043C42.5766 38.4389 42.5766 37.5908 42 37.0253C41.2791 36.3186 41.135 35.6118 41.2791 35.1878C41.4233 34.9051 42.1441 34.6223 43.1533 34.9051C43.8741 35.0464 44.7391 34.6223 44.8833 33.9156C45.1716 32.9261 45.3158 31.9366 45.3158 30.9472C45.3158 29.9577 45.0274 28.9682 44.7391 27.9787ZM33.6384 35.1878C31.1876 35.1878 29.3135 33.3502 29.3135 30.9472C29.3135 28.5442 31.1876 26.7066 33.6384 26.7066C36.0892 26.7066 37.9633 28.5442 37.9633 30.9472C37.9633 33.3502 36.0892 35.1878 33.6384 35.1878Z" fill="url(#paint1_linear)"/>
<defs>
<linearGradient id="paint0_linear" x1="15.4737" y1="0" x2="15.4737" y2="39.7895" gradientUnits="userSpaceOnUse">
<stop stop-color="#3949D8"/>
<stop offset="1" stop-color="#243A98"/>
</linearGradient>
<linearGradient id="paint1_linear" x1="33.7105" y1="19.8945" x2="33.7105" y2="41.9998" gradientUnits="userSpaceOnUse">
<stop stop-color="#2DC82A"/>
<stop offset="1" stop-color="#53A42F"/>
</linearGradient>
</defs>
</svg>
