<svg width="48" height="45" viewBox="0 0 48 45" fill="none" xmlns="http://www.w3.org/2000/svg">
<path fill-rule="evenodd" clip-rule="evenodd" d="M35.4369 16L39.6001 5.27197C40.1144 4.14226 40.1144 2.63598 39.4287 1.69456C38.743 0.564854 37.7144 0 36.5144 0H24.343C22.4573 0 20.5716 1.12971 19.7144 3.20084L14.5352 16H18.3018L22.8001 4.70711C23.143 3.95397 23.8287 3.57741 24.343 3.57741H36.5144L31.6671 16H35.4369Z" fill="url(#paint0_linear)"/>
<path fill-rule="evenodd" clip-rule="evenodd" d="M0.803533 17C0.301098 17.3083 0 17.8916 0 18.6402C0 19.7699 0.685714 20.523 1.71429 20.523H3.6L6.17143 38.5983C6.68571 42.364 9.6 45 13.0286 45H35.1429C38.5714 45 41.4857 42.364 42 38.5983L44.5714 20.523H46.2857C47.3143 20.523 48 19.7699 48 18.6402C48 17.8916 47.6989 17.3083 47.1965 17H0.803533Z" fill="url(#paint1_linear)"/>
<defs>
<linearGradient id="paint0_linear" x1="27.2509" y1="0" x2="27.2509" y2="16" gradientUnits="userSpaceOnUse">
<stop stop-color="#2DC82A"/>
<stop offset="1" stop-color="#53A42F"/>
</linearGradient>
<linearGradient id="paint1_linear" x1="24" y1="17" x2="24" y2="45" gradientUnits="userSpaceOnUse">
<stop stop-color="#3949D8"/>
<stop offset="1" stop-color="#243A98"/>
</linearGradient>
</defs>
</svg>
