<svg width="50" height="34" viewBox="0 0 50 34" fill="none" xmlns="http://www.w3.org/2000/svg">
<path d="M38.6983 33.4201C41.6127 33.4201 43.9752 31.0575 43.9752 28.1432C43.9752 25.2288 41.6127 22.8662 38.6983 22.8662C35.7839 22.8662 33.4213 25.2288 33.4213 28.1432C33.4213 31.0575 35.7839 33.4201 38.6983 33.4201Z" fill="url(#paint0_linear)"/>
<path d="M10.5547 33.4201C13.469 33.4201 15.8316 31.0575 15.8316 28.1432C15.8316 25.2288 13.469 22.8662 10.5547 22.8662C7.64028 22.8662 5.27771 25.2288 5.27771 28.1432C5.27771 31.0575 7.64028 33.4201 10.5547 33.4201Z" fill="url(#paint1_linear)"/>
<path d="M48.8997 16.5344L41.8638 7.73952C41.512 7.21183 40.9843 7.03593 40.4566 7.03593H31.6617V1.75898C31.6617 0.703593 30.9581 0 29.9027 0H1.75898C0.703593 0 0 0.703593 0 1.75898V28.1437C0 29.1991 0.703593 29.9027 1.75898 29.9027H1.93488C1.75898 29.375 1.75898 28.6714 1.75898 28.1437C1.75898 23.2186 5.62874 19.3488 10.5539 19.3488C15.479 19.3488 19.3488 23.2186 19.3488 28.1437C19.3488 28.6714 19.3488 29.375 19.1729 29.9027H29.9027H30.0786C29.9027 29.375 29.9027 28.6714 29.9027 28.1437C29.9027 23.2186 33.7725 19.3488 38.6976 19.3488C43.6228 19.3488 47.4925 23.2186 47.4925 28.1437C47.4925 28.6714 47.4925 29.375 47.3166 29.9027H47.4925C48.5479 29.9027 49.2515 29.1991 49.2515 28.1437V17.5898C49.2515 17.238 49.0756 16.8862 48.8997 16.5344Z" fill="url(#paint2_linear)"/>
<defs>
<linearGradient id="paint0_linear" x1="38.6983" y1="22.8662" x2="38.6983" y2="33.4201" gradientUnits="userSpaceOnUse">
<stop stop-color="#35B732"/>
<stop offset="1" stop-color="#53A42F"/>
</linearGradient>
<linearGradient id="paint1_linear" x1="10.5547" y1="22.8662" x2="10.5547" y2="33.4201" gradientUnits="userSpaceOnUse">
<stop stop-color="#35B732"/>
<stop offset="1" stop-color="#53A42F"/>
</linearGradient>
<linearGradient id="paint2_linear" x1="24.6258" y1="0" x2="24.6258" y2="29.9027" gradientUnits="userSpaceOnUse">
<stop stop-color="#3949D8"/>
<stop offset="1" stop-color="#243A98"/>
</linearGradient>
</defs>
</svg>
