<svg width="50" height="48" viewBox="0 0 50 48" fill="none" xmlns="http://www.w3.org/2000/svg">
<path d="M5.27638 9.16162V40.3103C5.27638 41.4096 5.97997 42.1425 7.03536 42.1425H42.215C43.2704 42.1425 43.974 41.4096 43.974 40.3103V9.16162C45.0294 9.16162 45.733 8.42871 45.733 7.32934C45.733 6.22998 45.0294 5.49707 43.974 5.49707H36.9381H24.6252H12.3123H5.27638C4.22099 5.49707 3.5174 6.22998 3.5174 7.32934C3.5174 8.42871 4.22099 9.16162 5.27638 9.16162ZM22.8662 32.9812H14.0713V27.4844H22.8662V32.9812ZM26.3842 27.4844H35.1791V32.9812H26.3842V27.4844ZM35.1791 23.8198H26.3842V18.323H35.1791V23.8198ZM22.8662 23.8198H14.0713V18.323H22.8662V23.8198ZM35.1791 14.6584H26.3842V9.16162H35.1791V14.6584ZM22.8662 9.16162V14.6584H14.0713V9.16162H22.8662Z" fill="url(#paint0_linear)"/>
<path d="M12.3125 3.66455H36.9383C37.9937 3.66455 38.6973 2.93164 38.6973 1.83227C38.6973 0.732909 37.9937 0 36.9383 0H12.3125C11.2571 0 10.5535 0.732909 10.5535 1.83227C10.5535 2.93164 11.2571 3.66455 12.3125 3.66455Z" fill="url(#paint1_linear)"/>
<path d="M47.4925 43.9751H1.75898C0.703593 43.9751 0 44.708 0 45.8074C0 46.9067 0.703593 47.6396 1.75898 47.6396H47.4925C48.5479 47.6396 49.2515 46.9067 49.2515 45.8074C49.2515 44.708 48.5479 43.9751 47.4925 43.9751Z" fill="url(#paint2_linear)"/>
<defs>
<linearGradient id="paint0_linear" x1="24.6252" y1="5.49707" x2="24.6252" y2="42.1425" gradientUnits="userSpaceOnUse">
<stop stop-color="#3949D8"/>
<stop offset="1" stop-color="#243A98"/>
</linearGradient>
<linearGradient id="paint1_linear" x1="24.6254" y1="0" x2="24.6254" y2="3.66455" gradientUnits="userSpaceOnUse">
<stop stop-color="#35B732"/>
<stop offset="1" stop-color="#53A42F"/>
</linearGradient>
<linearGradient id="paint2_linear" x1="24.6258" y1="43.9751" x2="24.6258" y2="47.6396" gradientUnits="userSpaceOnUse">
<stop stop-color="#35B732"/>
<stop offset="1" stop-color="#53A42F"/>
</linearGradient>
</defs>
</svg>
