<svg width="30" height="21" viewBox="0 0 30 21" fill="none" xmlns="http://www.w3.org/2000/svg">
<path fill-rule="evenodd" clip-rule="evenodd" d="M0 7C0 3.15 3.15 0 7 0C10.85 0 14 3.15 14 7C14 10.85 10.85 14 7 14C3.15 14 0 10.85 0 7ZM7 7.875H9.625C10.15 7.875 10.5 7.525 10.5 7C10.5 6.475 10.15 6.125 9.625 6.125H7.875V3.5C7.875 2.975 7.525 2.625 7 2.625C6.475 2.625 6.125 2.975 6.125 3.5V7C6.125 7.525 6.475 7.875 7 7.875ZM15.575 8.75C15.6897 8.18456 15.75 7.59932 15.75 7H28.875C29.4 7 29.75 7.35 29.75 7.875V20.125C29.75 20.65 29.4 21 28.875 21H6.125C5.6 21 5.25 20.65 5.25 20.125V15.575C5.81544 15.6897 6.40068 15.75 7 15.75V15.8375C8.75 16.1875 10.0625 17.5 10.4125 19.25H24.5875C24.9375 17.5 26.25 16.1875 28 15.8375V12.1625C26.25 11.8125 24.9375 10.5 24.5875 8.75H15.575ZM17.5 9.625C15.575 9.625 14 11.55 14 14C14 16.45 15.575 18.375 17.5 18.375C19.425 18.375 21 16.45 21 14C21 11.55 19.425 9.625 17.5 9.625Z" fill="url(#paint0_linear)"/>
<defs>
<linearGradient id="paint0_linear" x1="14.875" y1="0" x2="14.875" y2="21" gradientUnits="userSpaceOnUse">
<stop stop-color="#559BDC"/>
<stop offset="1" stop-color="#3F77CC"/>
</linearGradient>
</defs>
</svg>
