<svg width="20" height="20" viewBox="0 0 20 20" fill="none" xmlns="http://www.w3.org/2000/svg">
<path d="M19.1541 8.60092C19.0862 8.53306 19.0862 8.46521 19.0183 8.39735L16.3016 5.68306C16.0299 5.41163 15.6224 5.41163 15.3507 5.68306C15.0791 5.95449 15.0791 6.36163 15.3507 6.63306L16.9129 8.19378H13.1095V6.15806V1.40806C13.1095 1.00092 12.8378 0.729492 12.4303 0.729492H0.884256C0.816338 0.729492 0.680503 0.729492 0.612585 0.797349C0.612585 0.797349 0.612585 0.797349 0.544667 0.797349C0.544667 0.797349 0.476749 0.797349 0.476749 0.865206L0.408831 0.933064C0.340914 1.00092 0.272996 1.06878 0.272996 1.13663C0.272996 1.13663 0.272996 1.13664 0.272996 1.20449C0.205078 1.27235 0.205078 1.34021 0.205078 1.40806V16.3366C0.205078 16.6081 0.340914 16.8795 0.612585 16.9473L6.72519 19.6616C6.7931 19.7295 6.92894 19.7295 6.99686 19.7295C7.13269 19.7295 7.26853 19.6616 7.33645 19.5938C7.5402 19.4581 7.67603 19.2545 7.67603 19.0509V17.0152H12.4303C12.8378 17.0152 13.1095 16.7438 13.1095 16.3366V9.55092H16.9129L15.3507 11.1116C15.0791 11.3831 15.0791 11.7902 15.3507 12.0616C15.4866 12.1973 15.6903 12.2652 15.8262 12.2652C15.962 12.2652 16.1658 12.1973 16.3016 12.0616L19.0183 9.34735C19.0862 9.27949 19.1541 9.21163 19.1541 9.14378C19.2221 8.94021 19.2221 8.80449 19.1541 8.60092ZM4.95932 13.6223C4.95932 14.0295 4.68765 14.3009 4.28015 14.3009C3.87264 14.3009 3.60097 14.0295 3.60097 13.6223V10.9081C3.60097 10.5009 3.87264 10.2295 4.28015 10.2295C4.68765 10.2295 4.95932 10.5009 4.95932 10.9081V13.6223ZM11.7511 6.15806V15.6581H7.67603V4.12235C7.67603 3.85092 7.5402 3.57949 7.26853 3.51163L4.07639 2.08663H11.7511V6.15806Z" fill="#9E9FA7"/>
</svg>
