<svg width="48" height="44" viewBox="0 0 48 44" fill="none" xmlns="http://www.w3.org/2000/svg">
<path d="M46.2857 16.3849H42.8571H35.1429L39.6 5.15481C40.1143 4.05021 40.1143 2.57741 39.4286 1.6569C38.7429 0.552301 37.7143 0 36.5143 0H24.3429C22.4571 0 20.5714 1.1046 19.7143 3.12971L14.2286 16.3849H5.14286H1.71429C0.685714 16.3849 0 17.1213 0 18.2259C0 19.3305 0.685714 20.0669 1.71429 20.0669H3.6L6.17143 37.7406C6.68571 41.4226 9.6 44 13.0286 44H35.1429C38.5714 44 41.4857 41.4226 42 37.7406L44.5714 20.0669H46.2857C47.3143 20.0669 48 19.3305 48 18.2259C48 17.1213 47.3143 16.3849 46.2857 16.3849ZM22.8 4.60251C23.1429 3.86611 23.8286 3.49791 24.3429 3.49791H36.5143L31.3714 16.3849H18L22.8 4.60251Z" fill="#E0E2E9"/>
</svg>
