<svg width="19" height="17" viewBox="0 0 19 17" fill="none" xmlns="http://www.w3.org/2000/svg">
<path d="M17.5622 6.33054H16.2765H13.3836L15.0551 1.99163C15.2479 1.56485 15.2479 0.995816 14.9908 0.640167C14.7336 0.213389 14.3479 0 13.8979 0H9.33365C8.62651 0 7.91936 0.426778 7.59794 1.20921L5.54079 6.33054H2.13365H0.847935C0.462221 6.33054 0.205078 6.61506 0.205078 7.04184C0.205078 7.46862 0.462221 7.75314 0.847935 7.75314H1.55508L2.51936 14.5816C2.71222 16.0042 3.80508 17 5.09079 17H13.3836C14.6694 17 15.7622 16.0042 15.9551 14.5816L16.9194 7.75314H17.5622C17.9479 7.75314 18.2051 7.46862 18.2051 7.04184C18.2051 6.61506 17.9479 6.33054 17.5622 6.33054ZM8.75508 1.77824C8.88365 1.49372 9.14079 1.35146 9.33365 1.35146H13.8979L11.9694 6.33054H6.95508L8.75508 1.77824Z" fill="#000"/>
</svg>
