<svg width="19" height="19" viewBox="0 0 19 19" fill="none" xmlns="http://www.w3.org/2000/svg">
<path d="M1.98514 3.62954V15.3474C1.98514 15.7609 2.24982 16.0367 2.64685 16.0367H15.8811C16.2781 16.0367 16.5428 15.7609 16.5428 15.3474V3.62954C16.9398 3.62954 17.2045 3.35383 17.2045 2.94026C17.2045 2.52669 16.9398 2.25098 16.5428 2.25098H13.896H9.26398H4.63199H1.98514C1.58811 2.25098 1.32343 2.52669 1.32343 2.94026C1.32343 3.35383 1.58811 3.62954 1.98514 3.62954ZM8.60226 12.5902H5.2937V10.5224H8.60226V12.5902ZM9.92569 10.5224H13.2343V12.5902H9.92569V10.5224ZM13.2343 9.14382H9.92569V7.07596H13.2343V9.14382ZM8.60226 9.14382H5.2937V7.07596H8.60226V9.14382ZM13.2343 5.6974H9.92569V3.62954H13.2343V5.6974ZM8.60226 3.62954V5.6974H5.2937V3.62954H8.60226Z" fill="#9E9FA7"/>
<path d="M4.63199 1.56167H13.896C14.293 1.56167 14.5577 1.28596 14.5577 0.872389C14.5577 0.458819 14.293 0.183105 13.896 0.183105H4.63199C4.23496 0.183105 3.97028 0.458819 3.97028 0.872389C3.97028 1.28596 4.23496 1.56167 4.63199 1.56167Z" fill="#9E9FA7"/>
<path d="M17.8662 16.7261H0.661713C0.264685 16.7261 0 17.0018 0 17.4154C0 17.8289 0.264685 18.1046 0.661713 18.1046H17.8662C18.2633 18.1046 18.528 17.8289 18.528 17.4154C18.528 17.0018 18.2633 16.7261 17.8662 16.7261Z" fill="#9E9FA7"/>
</svg>
