<svg width="19" height="15" viewBox="0 0 19 15" fill="none" xmlns="http://www.w3.org/2000/svg">
<path d="M9.20508 0C4.25508 0 0.205078 4.09091 0.205078 9.09091C0.205078 11.1688 0.847935 13.1169 2.13365 14.7403C2.32651 14.9351 2.64794 15.0649 2.90508 14.9351C4.51222 14.2857 6.11936 13.8312 7.85508 13.7013L11.1979 7.46753C11.3908 7.14286 11.7765 7.01299 12.0979 7.20779C12.4194 7.4026 12.5479 7.79221 12.3551 8.11688L9.33365 13.6364C11.4551 13.6364 13.5122 14.0909 15.5051 14.9351C15.5694 15 15.6979 15 15.7622 15C15.9551 15 16.1479 14.9351 16.2765 14.7403C17.5622 13.1169 18.2051 11.1688 18.2051 9.09091C18.2051 4.09091 14.1551 0 9.20508 0ZM4.06222 9.74026H2.77651C2.39079 9.74026 2.13365 9.48052 2.13365 9.09091C2.13365 8.7013 2.39079 8.44156 2.77651 8.44156H4.06222C4.44794 8.44156 4.70508 8.7013 4.70508 9.09091C4.70508 9.48052 4.44794 9.74026 4.06222 9.74026ZM5.99079 5.84416C5.86222 5.97403 5.66936 6.03896 5.54079 6.03896C5.41222 6.03896 5.21936 5.97403 5.09079 5.84416L4.19079 4.93507C3.93365 4.67532 3.93365 4.28571 4.19079 4.02597C4.44794 3.76623 4.83365 3.76623 5.09079 4.02597L5.99079 4.93507C6.24794 5.19481 6.24794 5.64935 5.99079 5.84416ZM9.84793 3.8961C9.84793 4.28571 9.59079 4.54545 9.20508 4.54545C8.81936 4.54545 8.56222 4.28571 8.56222 3.8961V2.5974C8.56222 2.20779 8.81936 1.94805 9.20508 1.94805C9.59079 1.94805 9.84793 2.20779 9.84793 2.5974V3.8961ZM12.8694 6.03896C12.6765 6.03896 12.5479 5.97403 12.4194 5.84416C12.1622 5.58442 12.1622 5.19481 12.4194 4.93507L13.3194 4.02597C13.5765 3.76623 13.9622 3.76623 14.2194 4.02597C14.4765 4.28571 14.4765 4.67532 14.2194 4.93507L13.3194 5.84416C13.1908 5.97403 12.9979 6.03896 12.8694 6.03896ZM15.6336 9.74026H14.3479C13.9622 9.74026 13.7051 9.48052 13.7051 9.09091C13.7051 8.7013 13.9622 8.44156 14.3479 8.44156H15.6336C16.0194 8.44156 16.2765 8.7013 16.2765 9.09091C16.2765 9.48052 16.0194 9.74026 15.6336 9.74026Z" fill="black"/>
</svg>
