<svg width="19" height="19" viewBox="0 0 19 19" fill="none" xmlns="http://www.w3.org/2000/svg">
<path d="M16.4051 15.1175C16.9451 14.395 17.3651 13.6124 17.6651 12.7696C17.6651 12.7094 17.7251 12.6492 17.7251 12.5288C17.7851 12.4084 17.7851 12.2278 17.8451 12.1074C17.9051 11.987 17.9051 11.8666 17.9651 11.7462C17.9651 11.6258 18.0251 11.5054 18.0251 11.385C18.0851 11.2044 18.0851 11.0238 18.0851 10.9034C18.0851 10.783 18.0851 10.7228 18.1451 10.6024C18.1451 10.3014 18.2051 10.0606 18.2051 9.75959C18.2051 4.76294 14.1851 0.729492 9.20508 0.729492C4.22508 0.729492 0.205078 4.70274 0.205078 9.69939C0.205078 10.0004 0.205078 10.2412 0.265078 10.5422C0.265078 10.6626 0.265078 10.7228 0.325078 10.8432C0.325078 11.0238 0.385078 11.2044 0.385078 11.3248C0.385078 11.4452 0.445078 11.5656 0.445078 11.686C0.445078 11.8064 0.505078 11.9268 0.565078 12.0472C0.625078 12.1676 0.625078 12.3482 0.685078 12.4686C0.685078 12.5288 0.745078 12.589 0.745078 12.7094C1.04508 13.6124 1.46508 14.395 2.00508 15.1175C3.62508 17.2847 6.26508 18.7295 9.20508 18.7295C12.1451 18.7295 14.7251 17.2847 16.4051 15.1175ZM9.20508 17.5255C6.44508 17.5255 4.04508 16.0807 2.66508 13.9134C3.62508 12.3482 5.12508 11.2044 6.92508 10.6626C6.08508 10.0004 5.60508 8.97698 5.60508 7.89337C5.60508 5.90675 7.22508 4.28133 9.20508 4.28133C11.1851 4.28133 12.8051 5.90675 12.8051 7.89337C12.8051 8.97698 12.3251 10.0004 11.5451 10.6626C13.2851 11.2044 14.7851 12.4084 15.8051 13.9134C14.3651 16.0807 11.9651 17.5255 9.20508 17.5255Z" fill="#9E9FA7"/>
</svg>
