<svg width="23" height="14" viewBox="0 0 23 14" fill="none" xmlns="http://www.w3.org/2000/svg">
<path d="M18.6875 13.6562C17.4656 13.6562 16.5312 12.7219 16.5312 11.5C16.5312 10.2781 17.4656 9.34375 18.6875 9.34375C19.9094 9.34375 20.8438 10.2781 20.8438 11.5C20.8438 12.7219 19.9094 13.6562 18.6875 13.6562Z" fill="url(#paint0_linear)"/>
<path d="M7.1875 13.6562C5.96562 13.6562 5.03125 12.7219 5.03125 11.5C5.03125 10.2781 5.96562 9.34375 7.1875 9.34375C8.40937 9.34375 9.34375 10.2781 9.34375 11.5C9.34375 12.7219 8.40937 13.6562 7.1875 13.6562Z" fill="url(#paint1_linear)"/>
<path d="M22.8562 6.75625L19.9812 3.1625C19.8375 2.94687 19.6219 2.875 19.4062 2.875H15.8125V0.71875C15.8125 0.2875 15.525 0 15.0938 0H3.59375C3.1625 0 2.875 0.2875 2.875 0.71875V1.4375H3.59375C4.025 1.4375 4.3125 1.725 4.3125 2.15625C4.3125 2.5875 4.025 2.875 3.59375 2.875H2.875H2.15625C1.725 2.875 1.4375 3.1625 1.4375 3.59375C1.4375 4.025 1.725 4.3125 2.15625 4.3125H2.875H4.3125C4.74375 4.3125 5.03125 4.6 5.03125 5.03125C5.03125 5.4625 4.74375 5.75 4.3125 5.75H2.875H0.71875C0.2875 5.75 0 6.0375 0 6.46875C0 6.9 0.2875 7.1875 0.71875 7.1875H2.875V11.5C2.875 11.9312 3.1625 12.2188 3.59375 12.2188H3.66562C3.59375 12.0031 3.59375 11.7156 3.59375 11.5C3.59375 9.4875 5.175 7.90625 7.1875 7.90625C9.2 7.90625 10.7812 9.4875 10.7812 11.5C10.7812 11.7156 10.7812 12.0031 10.7094 12.2188H15.0938H15.1656C15.0938 12.0031 15.0938 11.7156 15.0938 11.5C15.0938 9.4875 16.675 7.90625 18.6875 7.90625C20.7 7.90625 22.2812 9.4875 22.2812 11.5C22.2812 11.7156 22.2812 12.0031 22.2094 12.2188H22.2812C22.7125 12.2188 23 11.9312 23 11.5V7.1875C23 7.04375 22.9281 6.9 22.8562 6.75625Z" fill="url(#paint2_linear)"/>
<defs>
<linearGradient id="paint0_linear" x1="18.6875" y1="9.34375" x2="18.6875" y2="13.6562" gradientUnits="userSpaceOnUse">
<stop stop-color="#2DC82A"/>
<stop offset="1" stop-color="#53A42F"/>
</linearGradient>
<linearGradient id="paint1_linear" x1="7.1875" y1="9.34375" x2="7.1875" y2="13.6562" gradientUnits="userSpaceOnUse">
<stop stop-color="#2DC82A"/>
<stop offset="1" stop-color="#53A42F"/>
</linearGradient>
<linearGradient id="paint2_linear" x1="11.5" y1="0" x2="11.5" y2="12.2188" gradientUnits="userSpaceOnUse">
<stop stop-color="#2DC82A"/>
<stop offset="1" stop-color="#53A42F"/>
</linearGradient>
</defs>
</svg>
