<svg width="20" height="21" viewBox="0 0 20 21" fill="none" xmlns="http://www.w3.org/2000/svg">
<path d="M16.4554 0H6.46097C5.6757 0 5.0332 0.642497 5.0332 1.42777V8.99496C5.88987 8.70941 6.81792 8.56663 7.81736 8.56663H12.1721C13.3143 8.56663 14.3137 9.49468 14.3137 10.6369V10.7797C14.3137 10.8511 14.3137 10.8511 14.3137 10.9225C15.2418 9.78024 16.5268 8.99496 17.8831 8.70941V1.42777C17.8831 0.642497 17.2407 0 16.4554 0ZM15.5273 4.85442C15.3845 4.9972 15.2418 5.06859 15.0276 5.06859C14.8134 5.06859 14.6707 4.9972 14.5279 4.85442L14.3137 4.64026V6.42497C14.3137 6.8533 14.0282 7.13886 13.5998 7.13886C13.1715 7.13886 12.8859 6.8533 12.8859 6.42497V4.64026L12.6718 4.85442C12.3862 5.13998 11.9579 5.13998 11.6723 4.85442C11.3868 4.56887 11.3868 4.14054 11.6723 3.85498L13.1001 2.35582C13.3857 2.07027 13.8854 2.07027 14.1709 2.35582L15.5987 3.85498C15.8129 4.14054 15.8129 4.64026 15.5273 4.85442Z" fill="url(#paint0_linear)"/>
<path d="M19.9531 10.3516C19.8103 10.1374 19.5962 9.99463 19.3106 9.99463C17.7401 9.99463 16.2409 10.7085 15.3129 11.9935L14.6704 12.8502C13.8851 13.7782 12.6715 14.2779 11.4579 14.2779H9.31621C8.88788 14.2779 8.60232 13.9924 8.60232 13.5641C8.60232 13.1357 8.88788 12.8502 9.31621 12.8502H10.6726C11.8148 12.8502 12.8856 11.9221 12.8856 10.7799V10.7085C12.8856 10.3516 12.5287 9.99463 12.1718 9.99463H7.81705C5.24706 9.99463 3.17679 11.1368 2.03457 12.9929L0.107083 15.9913C-0.0356943 16.2054 -0.0356943 16.491 0.107083 16.7052L2.24874 20.2746C2.32013 20.4174 2.53429 20.5601 2.67707 20.6315C2.74846 20.6315 2.74846 20.6315 2.81985 20.6315C2.96263 20.6315 3.1054 20.5601 3.24818 20.4888C5.96095 18.704 9.10204 17.776 12.3145 17.776C14.6704 17.776 16.812 16.491 17.9542 14.4207L19.8817 10.9941C20.0245 10.8513 20.0245 10.5657 19.9531 10.3516Z" fill="url(#paint1_linear)"/>
<defs>
<linearGradient id="paint0_linear" x1="11.4582" y1="0" x2="11.4582" y2="10.9225" gradientUnits="userSpaceOnUse">
<stop stop-color="#2DC82A"/>
<stop offset="1" stop-color="#53A42F"/>
</linearGradient>
<linearGradient id="paint1_linear" x1="10" y1="9.99463" x2="10" y2="20.6315" gradientUnits="userSpaceOnUse">
<stop stop-color="#2DC82A"/>
<stop offset="1" stop-color="#53A42F"/>
</linearGradient>
</defs>
</svg>
