<svg width="20" height="13" viewBox="0 0 20 13" fill="none" xmlns="http://www.w3.org/2000/svg">
<path d="M15.44 12.5723C16.5364 12.5723 17.4251 11.6835 17.4251 10.5872C17.4251 9.49083 16.5364 8.60205 15.44 8.60205C14.3436 8.60205 13.4549 9.49083 13.4549 10.5872C13.4549 11.6835 14.3436 12.5723 15.44 12.5723Z" fill="#9E9FA7"/>
<path d="M4.8526 12.5723C5.94896 12.5723 6.83774 11.6835 6.83774 10.5872C6.83774 9.49083 5.94896 8.60205 4.8526 8.60205C3.75624 8.60205 2.86746 9.49083 2.86746 10.5872C2.86746 11.6835 3.75624 12.5723 4.8526 12.5723Z" fill="#9E9FA7"/>
<path d="M19.2779 6.2201L16.6311 2.91153C16.4987 2.71302 16.3002 2.64685 16.1017 2.64685H12.7931V0.661713C12.7931 0.264685 12.5285 0 12.1314 0H1.54404C1.14701 0 0.882324 0.264685 0.882324 0.661713V10.5874C0.882324 10.9844 1.14701 11.2491 1.54404 11.2491H1.61021C1.54404 11.0506 1.54404 10.7859 1.54404 10.5874C1.54404 8.73461 2.9998 7.27884 4.8526 7.27884C6.70539 7.27884 8.16116 8.73461 8.16116 10.5874C8.16116 10.7859 8.16116 11.0506 8.09499 11.2491H12.1314H12.1976C12.1314 11.0506 12.1314 10.7859 12.1314 10.5874C12.1314 8.73461 13.5872 7.27884 15.44 7.27884C17.2928 7.27884 18.7486 8.73461 18.7486 10.5874C18.7486 10.7859 18.7486 11.0506 18.6824 11.2491H18.7486C19.1456 11.2491 19.4103 10.9844 19.4103 10.5874V6.61713C19.4103 6.48478 19.3441 6.35244 19.2779 6.2201Z" fill="#9E9FA7"/>
</svg>
